<?xml version="1.0" encoding="UTF-8"?>
<svg version="1.1" xmlns="http://www.w3.org/2000/svg" width="1080" height="1080">
<path d="M0 0 C356.4 0 712.8 0 1080 0 C1080 356.4 1080 712.8 1080 1080 C723.6 1080 367.2 1080 0 1080 C0 723.6 0 367.2 0 0 Z " fill="#6CCAF1" transform="translate(0,0)"/>
<path d="M0 0 C0.70366699 0.00757324 1.40733398 0.01514648 2.13232422 0.02294922 C9.75034027 0.26493118 14.08870665 2.44241674 19.5625 7.5 C22.0625 10.4375 22.0625 10.4375 22.0625 13.4375 C23.114375 12.53257812 23.114375 12.53257812 24.1875 11.609375 C35.02615166 2.47898909 41.93234786 -1.00823631 56.16601562 0.16259766 C60.32596577 0.76559764 63.1117282 2.54820261 66.0625 5.4375 C67.42375 6.736875 67.42375 6.736875 68.8125 8.0625 C75.34570336 16.7725533 75.619859 26.83779543 75.453125 37.29296875 C75.4456448 38.68971437 75.4399603 40.08647063 75.43597412 41.48323059 C75.4208572 45.12153193 75.38170077 48.75917266 75.3371582 52.3972168 C75.29590007 56.12474639 75.27789862 59.85238497 75.2578125 63.58007812 C75.21518854 70.86621841 75.14495822 78.15168169 75.0625 85.4375 C66.4825 85.4375 57.9025 85.4375 49.0625 85.4375 C49.04832031 81.38082031 49.03414063 77.32414063 49.01953125 73.14453125 C48.99427443 69.90330348 48.96404542 66.66220667 48.93045807 63.42105865 C48.89640092 60.00319047 48.87104174 56.58577119 48.86694336 53.16772461 C48.86183358 49.2429215 48.81670084 45.31906327 48.76953125 41.39453125 C48.7734639 40.17353226 48.77739655 38.95253326 48.78144836 37.6945343 C48.89367911 30.88187877 48.89367911 30.88187877 45.72143555 25.1706543 C42.0627504 22.78584061 40.37351938 22.64714645 36.0625 23.4375 C32.47478923 24.88793688 29.69997219 26.58530413 27.0625 29.4375 C25.75478695 33.71023915 25.8734333 37.83281097 25.96484375 42.2734375 C25.95538223 43.50792633 25.94592072 44.74241516 25.93617249 46.01431274 C25.9156123 49.94826473 25.9569862 53.87877975 26 57.8125 C26.00194125 60.48316962 25.98981123 63.15354527 25.97851562 65.82421875 C25.95209575 72.36415482 26.00943622 78.89579779 26.0625 85.4375 C17.4825 85.4375 8.9025 85.4375 0.0625 85.4375 C0.01351562 81.52519531 -0.03546875 77.61289062 -0.0859375 73.58203125 C-0.13994861 69.79252296 -0.1972557 66.00307786 -0.25488281 62.21362305 C-0.29316345 59.58020739 -0.32801789 56.94673962 -0.359375 54.31323242 C-0.4050447 50.52764254 -0.46303726 46.74241122 -0.5234375 42.95703125 C-0.53498871 41.77977982 -0.54653992 40.60252838 -0.55844116 39.38960266 C-0.57831085 38.28883896 -0.59818054 37.18807526 -0.61865234 36.05395508 C-0.63197601 35.08798904 -0.64529968 34.12202301 -0.6590271 33.12678528 C-1.07699126 29.09039659 -2.05828271 26.31671729 -4.9375 23.4375 C-11.10896486 22.57132949 -14.92249592 23.75790858 -20.01657104 27.32745361 C-23.860576 31.54990481 -23.14689081 36.84548644 -23.03515625 42.2734375 C-23.04461777 43.50792633 -23.05407928 44.74241516 -23.06382751 46.01431274 C-23.0843877 49.94826473 -23.0430138 53.87877975 -23 57.8125 C-22.99805875 60.48316962 -23.01018877 63.15354527 -23.02148438 65.82421875 C-23.04790425 72.36415482 -22.99056378 78.89579779 -22.9375 85.4375 C-31.5175 85.4375 -40.0975 85.4375 -48.9375 85.4375 C-48.9375 57.7175 -48.9375 29.9975 -48.9375 1.4375 C-41.6775 1.4375 -34.4175 1.4375 -26.9375 1.4375 C-26.2775 4.7375 -25.6175 8.0375 -24.9375 11.4375 C-24.29683594 10.89480469 -23.65617187 10.35210938 -22.99609375 9.79296875 C-22.13113281 9.07753906 -21.26617187 8.36210938 -20.375 7.625 C-19.52808594 6.91730469 -18.68117188 6.20960938 -17.80859375 5.48046875 C-12.117212 1.43068283 -6.93427957 -0.10463703 0 0 Z " fill="#FDFEFE" transform="translate(320.9375,507.5625)"/>
<path d="M0 0 C7.83895988 6.14847114 11.58612296 13.96908731 13.24609375 23.76171875 C13.33010861 25.6936127 13.36390676 27.62805242 13.35961914 29.56176758 C13.35950584 31.27297539 13.35950584 31.27297539 13.35939026 33.01875305 C13.35422897 34.23975204 13.34906769 35.46075104 13.34375 36.71875 C13.34233505 37.97684982 13.3409201 39.23494965 13.33946228 40.53117371 C13.33481948 43.86350404 13.32584603 47.19576507 13.3147583 50.52807617 C13.30449878 53.93342492 13.29995496 57.33878085 13.29492188 60.74414062 C13.28390204 67.4166882 13.2666421 74.08919399 13.24609375 80.76171875 C5.98609375 80.76171875 -1.27390625 80.76171875 -8.75390625 80.76171875 C-9.24890625 76.80171875 -9.24890625 76.80171875 -9.75390625 72.76171875 C-10.46675781 73.23222656 -11.17960938 73.70273437 -11.9140625 74.1875 C-22.12576149 80.82579154 -29.35364326 84.01035634 -41.75390625 82.76171875 C-48.46796219 81.05092565 -52.89448163 76.32623308 -56.75390625 70.76171875 C-60.15265547 64.86814298 -60.72799066 58.4318777 -59.75390625 51.76171875 C-57.12886209 43.653249 -52.65536792 38.47184763 -45.28125 34.39453125 C-35.20864426 29.49591148 -24.88049591 27.39689808 -13.75390625 26.76171875 C-14.54854091 22.05687586 -14.54854091 22.05687586 -17.41796875 18.55859375 C-25.33351728 15.85830629 -34.24220233 17.26997804 -41.66796875 20.69140625 C-42.35632813 21.04460938 -43.0446875 21.3978125 -43.75390625 21.76171875 C-44.87925781 22.32246094 -44.87925781 22.32246094 -46.02734375 22.89453125 C-46.59710937 23.18070313 -47.166875 23.466875 -47.75390625 23.76171875 C-49.12327126 21.3525952 -50.47432618 18.9359769 -51.81640625 16.51171875 C-52.20634766 15.82980469 -52.59628906 15.14789062 -52.99804688 14.4453125 C-53.36220703 13.78144531 -53.72636719 13.11757813 -54.1015625 12.43359375 C-54.44195557 11.82612305 -54.78234863 11.21865234 -55.13305664 10.59277344 C-55.92924533 8.24459603 -55.6708547 7.04396115 -54.75390625 4.76171875 C-52.3828125 3.1640625 -52.3828125 3.1640625 -49.31640625 1.69921875 C-47.83333984 0.97025391 -47.83333984 0.97025391 -46.3203125 0.2265625 C-32.25949359 -5.54869171 -13.56829853 -8.44818588 0 0 Z " fill="#FCFEFE" transform="translate(625.75390625,512.23828125)"/>
<path d="M0 0 C1.74609375 1.390625 1.74609375 1.390625 3.25 2.875 C3.73597656 3.34421875 4.22195313 3.8134375 4.72265625 4.296875 C13.35076528 13.6544743 12.3965807 25.72058669 12.34765625 37.5625 C12.3462413 38.86074707 12.34482635 40.15899414 12.34336853 41.49658203 C12.33957825 44.92256652 12.32977839 48.34850759 12.31866455 51.7744751 C12.30837479 55.28063357 12.30379974 58.78679937 12.29882812 62.29296875 C12.28868514 69.15368399 12.26910473 76.0142805 12.25 82.875 C3.67 82.875 -4.91 82.875 -13.75 82.875 C-13.80607422 76.89826172 -13.80607422 76.89826172 -13.86328125 70.80078125 C-13.90949223 66.94175729 -13.96072764 63.08283049 -14.01245117 59.22387695 C-14.04735011 56.54193399 -14.0749887 53.86006199 -14.09643555 51.17797852 C-14.12997146 47.32277567 -14.18228927 43.46821525 -14.23828125 39.61328125 C-14.24467117 38.41415604 -14.2510611 37.21503082 -14.25764465 35.97956848 C-14.27743881 34.85878403 -14.29723297 33.73799957 -14.31762695 32.58325195 C-14.33428154 31.10765556 -14.33428154 31.10765556 -14.35127258 29.60224915 C-14.82369142 26.37095929 -15.79265872 24.4750815 -17.75 21.875 C-22.36824241 20.33558586 -26.37467495 19.86974935 -30.88598633 21.77896118 C-34.30615766 23.96071642 -36.39596327 25.57404107 -37.48706055 29.58343506 C-37.77410831 32.9822325 -37.8054626 36.30041892 -37.75 39.7109375 C-37.7663147 41.56267075 -37.7663147 41.56267075 -37.78295898 43.45181274 C-37.80910446 47.38543077 -37.78027655 51.31645123 -37.75 55.25 C-37.75363983 57.92066532 -37.7697682 60.59107398 -37.78515625 63.26171875 C-37.8217345 69.80109635 -37.78395671 76.33408924 -37.75 82.875 C-46.33 82.875 -54.91 82.875 -63.75 82.875 C-63.75 55.485 -63.75 28.095 -63.75 -0.125 C-56.49 -0.125 -49.23 -0.125 -41.75 -0.125 C-41.09 2.845 -40.43 5.815 -39.75 8.875 C-39.20472656 8.41609375 -38.65945313 7.9571875 -38.09765625 7.484375 C-27.87543683 -0.83319157 -12.81601906 -7.54314265 0 0 Z " fill="#FEFEFE" transform="translate(722.75,510.125)"/>
<path d="M0 0 C0.82048828 -0.00773437 1.64097656 -0.01546875 2.48632812 -0.0234375 C7.55773298 -0.00724786 11.75751191 0.6203136 16.5625 2.25 C16.1768354 9.36484687 15.17150601 15.60441866 12.5625 22.25 C11.69625 22.01216797 11.69625 22.01216797 10.8125 21.76953125 C6.33688774 20.73609995 2.2065023 20.32261409 -1.875 22.625 C-4.30189129 26.70217736 -4.18951711 30.53832506 -4.4375 35.25 C0.1825 35.25 4.8025 35.25 9.5625 35.25 C9.5625 42.18 9.5625 49.11 9.5625 56.25 C4.6125 56.25 -0.3375 56.25 -5.4375 56.25 C-5.4375 77.04 -5.4375 97.83 -5.4375 119.25 C-14.0175 119.25 -22.5975 119.25 -31.4375 119.25 C-31.4375 98.46 -31.4375 77.67 -31.4375 56.25 C-35.0675 56.25 -38.6975 56.25 -42.4375 56.25 C-42.4375 49.65 -42.4375 43.05 -42.4375 36.25 C-38.8075 36.25 -35.1775 36.25 -31.4375 36.25 C-31.52 34.496875 -31.6025 32.74375 -31.6875 30.9375 C-31.65343196 21.29624574 -28.85683192 13.81350562 -22.1640625 6.8359375 C-15.64323169 0.84621508 -8.49871866 -0.07973778 0 0 Z " fill="#FDFEFE" transform="translate(547.4375,473.75)"/>
<path d="M0 0 C0.99 0.66 1.98 1.32 3 2 C2.44151174 6.18358477 -0.04446302 9.02629569 -2.5625 12.25 C-2.98724609 12.80429687 -3.41199219 13.35859375 -3.84960938 13.9296875 C-4.89398341 15.29089411 -5.94622464 16.64605833 -7 18 C-10.43347195 17.43075072 -13.11345268 16.5466167 -16.1875 14.9375 C-21.0439074 12.69670799 -25.70550463 12.13926918 -31 13 C-33.18891761 14.82473909 -33.18891761 14.82473909 -33.5 17.375 C-33.25159786 20.25942035 -33.25159786 20.25942035 -30.4296875 21.98046875 C-26.93206151 24.04000478 -23.41626021 25.54066917 -19.625 26.9375 C-10.08931761 30.62884433 -1.50025683 34.72283374 3.13671875 44.36328125 C5.32040667 51.03291629 4.85803359 58.02476086 1.9375 64.375 C-2.63441622 72.29036741 -8.64812076 76.03652859 -17.203125 79.08203125 C-32.35638616 82.74562834 -45.89669557 79.3333589 -59.13671875 71.5625 C-61.35615242 69.70133969 -61.66130082 68.83644218 -62 66 C-61.19555664 64.26074219 -61.19555664 64.26074219 -59.91015625 62.546875 C-59.45576172 61.928125 -59.00136719 61.309375 -58.53320312 60.671875 C-58.04787109 60.03765625 -57.56253906 59.4034375 -57.0625 58.75 C-56.58103516 58.1003125 -56.09957031 57.450625 -55.60351562 56.78125 C-54.41364358 55.17904606 -53.20826972 53.58837566 -52 52 C-49.83899818 53.07799395 -47.68119281 54.16167 -45.52734375 55.25390625 C-44.67269531 55.68574219 -43.81804688 56.11757813 -42.9375 56.5625 C-42.08027344 56.99691406 -41.22304688 57.43132812 -40.33984375 57.87890625 C-34.91881765 60.47629271 -29.67143695 60.89047898 -24 59 C-23.34 58.67 -22.68 58.34 -22 58 C-22 55.69 -22 53.38 -22 51 C-26.9209401 48.44529918 -31.78716134 46.02809983 -37 44.125 C-44.96415159 41.02224694 -53.00941826 36.03340072 -56.89453125 28.1953125 C-59.56095872 21.937122 -59.96721934 16.35147071 -57.8125 9.875 C-54.39477489 1.78954848 -48.24410384 -2.80136091 -40.36328125 -6.10546875 C-26.10791565 -9.89696552 -12.57215023 -7.10599796 0 0 Z " fill="#FCFEFE" transform="translate(811,515)"/>
<path d="M0 0 C8.58 0 17.16 0 26 0 C26.06796433 11.41417401 26.12292463 22.82821208 26.15543652 34.24254322 C26.17104603 39.54352695 26.19219767 44.84436421 26.22631836 50.14526367 C26.25908057 55.26757419 26.27688842 60.38974445 26.28463173 65.51215172 C26.2901451 67.45963433 26.30091085 69.40710987 26.31719017 71.35453224 C26.53706118 98.76410244 26.53706118 98.76410244 17 109 C9.49537031 114.44606807 2.95736792 115.18108929 -6.0625 115.1875 C-7.42858398 115.20586914 -7.42858398 115.20586914 -8.82226562 115.22460938 C-10.13420898 115.22750977 -10.13420898 115.22750977 -11.47265625 115.23046875 C-12.26937744 115.23457764 -13.06609863 115.23868652 -13.88696289 115.24291992 C-16 115 -16 115 -19 113 C-18.32418477 106.91766294 -17.26361972 100.98685848 -16 95 C-13.45083515 94.28579433 -11.69394137 94.01275244 -9 94.125 C-5.56486347 93.98186931 -4.40199019 93.40199019 -2 91 C-0.72632615 87.17897844 -0.82290927 83.56468671 -0.79467773 79.58129883 C-0.77982834 78.29317039 -0.77982834 78.29317039 -0.76467896 76.97901917 C-0.73307234 74.13838465 -0.70830979 71.2977334 -0.68359375 68.45703125 C-0.6630235 66.48833276 -0.64202701 64.51963868 -0.62062073 62.5509491 C-0.56540738 57.36751882 -0.51599482 52.18404873 -0.46777344 47.00054932 C-0.41755306 41.71191868 -0.36186979 36.42334591 -0.30664062 31.13476562 C-0.19906804 20.75655799 -0.09812579 10.37830125 0 0 Z " fill="#FEFEFE" transform="translate(465,510)"/>
<path d="M0 0 C8.58 0 17.16 0 26 0 C26 27.72 26 55.44 26 84 C17.42 84 8.84 84 0 84 C0 56.28 0 28.56 0 0 Z " fill="#FDFEFE" transform="translate(418,509)"/>
<path d="M0 0 C3.51520834 2.3707219 5.79390381 5.02530762 7.6875 8.8125 C8.23645595 14.52164192 7.31387093 17.38026886 3.6875 21.8125 C-0.51025292 25.50143438 -4.44231081 26.21747734 -9.890625 26.1640625 C-13.99687193 25.5679944 -17.26771341 23.58712567 -20.3125 20.8125 C-22.95359071 16.65363963 -22.84349959 12.59149627 -22.3125 7.8125 C-20.74769474 3.67036842 -18.27499961 1.58567633 -14.33984375 -0.4609375 C-9.39916664 -2.23158479 -4.86123867 -1.7427082 0 0 Z " fill="#FBFDFE" transform="translate(438.3125,472.1875)"/>
<path d="M0 0 C3.78157658 2.57834767 7.18734371 5.16788012 8.1640625 9.8671875 C8.35084234 14.36688376 7.55160269 17.39714838 4.75 20.875 C-0.02348251 25.17113426 -3.68901663 26.23780498 -9.96875 26.15625 C-14.60690896 25.58442218 -17.32027616 22.73132459 -20.625 19.6875 C-22.93199757 15.69461959 -23.2802533 12.37274763 -22.25 7.875 C-17.1698892 -0.79396326 -9.38685954 -3.24929753 0 0 Z " fill="#FBFDFE" transform="translate(485.25,472.125)"/>
<path d="M0 0 C1.06773406 12.52469003 1.06773406 12.52469003 -1.453125 16.0078125 C-6.29203766 19.40318399 -11.09192137 20.61118055 -17 20 C-20 17.9375 -20 17.9375 -22 15 C-22.125 11.4375 -22.125 11.4375 -21 8 C-15.5088329 2.18582307 -7.78959188 0 0 0 Z " fill="#72CCF1" transform="translate(613,555)"/>
</svg>
